  <svg xmlns:dc="http://purl.org/dc/elements/1.1/" xmlns:cc="http://creativecommons.org/ns#"
    xmlns:rdf="http://www.w3.org/1999/02/22-rdf-syntax-ns#" xmlns:svg="http://www.w3.org/2000/svg"
    xmlns="http://www.w3.org/2000/svg" viewBox="0 0 381.98132 221.98933" height="221.98933" width="381.98132"
    xml:space="preserve" id="svg2" version="1.1" style="zoom: 1;" visibility="visible">
    <metadata id="metadata8" visibility="visible">
      <rdf:RDF visibility="visible">
        <cc:Work rdf:about="">
          <dc:format>image/svg+xml</dc:format>
          <dc:type rdf:resource="http://purl.org/dc/dcmitype/StillImage"></dc:type>
        </cc:Work>
      </rdf:RDF>
    </metadata>
    <defs id="defs6">
      <clipPath id="clipPath18" clipPathUnits="userSpaceOnUse">
        <path id="path16" d="M0,166.492 H286.486 V0 H0  Z "></path>
      </clipPath>
    </defs>
    <g id="g10" transform="matrix(1.3333333,0,0,-1.3333333,0,221.98933)">
      <g id="g12">
        <g clip-path="url(#clipPath18)" id="g14">
          <g stroke-width="3" stroke="#111111" transform="translate(46.3597,138.4292)" fill="none" id="g20"
            visibility="visible">
            <path
              d="M0,0 c0.024,0.004 0.074,0.011 0.099,0.014 h200.18 c0.42,-0.081 0.838,-0.184 1.255,-0.285 c0.294,-0.101 0.605,-0.149 0.891,-0.273 c0.842,-0.325 1.629,-0.785 2.325,-1.358 c1.373,-1.121 2.359,-2.708 2.783,-4.431 c0.091,-0.4 0.163,-0.808 0.261,-1.205 c-0.001,-24.237 0,-48.475 0,-72.712 c-0.005,-0.163 0.019,-0.331 -0.037,-0.489 c-0.129,-0.431 -0.172,-0.882 -0.307,-1.311 c-0.083,-0.192 -0.106,-0.404 -0.195,-0.594 c-0.345,-0.951 -0.88,-1.829 -1.537,-2.595 c-0.171,-0.145 -0.289,-0.338 -0.455,-0.486 c-0.138,-0.084 -0.238,-0.213 -0.354,-0.322 c-0.266,-0.211 -0.527,-0.429 -0.809,-0.617 c-0.638,-0.433 -1.343,-0.762 -2.07,-1.013 c-0.224,-0.076 -0.453,-0.137 -0.686,-0.174 c-0.352,-0.1 -0.715,-0.157 -1.068,-0.252 c-10.797,-0.003 -21.593,0 -32.39,-0.001 H1.791 c-0.562,0.005 -1.124,-0.009 -1.684,0.006 c-0.464,0.125 -0.943,0.187 -1.405,0.324 c-1.233,0.334 -2.373,0.978 -3.328,1.822 c-0.182,0.194 -0.379,0.372 -0.564,0.562 c-0.761,0.824 -1.34,1.81 -1.722,2.863 c-0.17,0.549 -0.299,1.112 -0.432,1.672 c-0.061,0.196 -0.026,0.403 -0.034,0.605 c-10e-4,24.212 0,48.424 -10e-4,72.636 c-0.021,0.234 0.055,0.459 0.106,0.683 c0.257,1.438 0.875,2.815 1.817,3.934 c0.129,0.192 0.318,0.331 0.475,0.498 c0.719,0.797 1.642,1.386 2.615,1.823 c0.511,0.201 1.032,0.388 1.572,0.495 C-0.532,-0.112 -0.26,-0.081 0,0 m0.675,-0.747 c-0.309,-0.061 -0.63,0.01 -0.935,-0.079 c-0.611,-0.105 -1.218,-0.262 -1.787,-0.507 c-0.231,-0.083 -0.436,-0.22 -0.661,-0.315 c-0.564,-0.317 -1.104,-0.688 -1.563,-1.146 c-0.108,-0.077 -0.217,-0.159 -0.29,-0.273 c-0.076,-0.121 -0.206,-0.198 -0.28,-0.322 c-0.506,-0.576 -0.905,-1.244 -1.206,-1.949 c-0.21,-0.465 -0.331,-0.965 -0.457,-1.458 c-0.01,-0.158 -0.046,-0.312 -0.058,-0.471 c-0.051,-0.141 -0.004,-0.295 -0.052,-0.437 c-0.027,-0.118 -0.009,-0.241 -0.013,-0.361 v-71.96 c0.005,-0.129 -0.018,-0.264 0.022,-0.391 c0.055,-0.868 0.289,-1.723 0.641,-2.519 c0.212,-0.426 0.423,-0.856 0.716,-1.235 c0.138,-0.197 0.28,-0.393 0.451,-0.564 c0.09,-0.144 0.223,-0.251 0.34,-0.373 c1.163,-1.196 2.748,-1.966 4.403,-2.174 c0.709,-0.102 1.43,-0.056 2.145,-0.04 c2.141,0.008 4.284,0.001 6.426,0.004 c26.192,0 52.384,-0.001 78.576,0 c16.91,10e-4 33.821,-0.004 50.731,0.002 c0.257,-0.007 0.444,0.202 0.646,0.331 c1.608,1.133 3.214,2.273 4.823,3.405 c1.441,1.028 2.896,2.036 4.333,3.07 c0.555,0.368 1.081,0.779 1.637,1.145 c1.731,1.224 3.457,2.458 5.196,3.671 c0.573,0.404 1.138,0.82 1.714,1.219 c1.208,0.844 2.408,1.7 3.611,2.551 c0.543,0.368 1.065,0.767 1.611,1.132 c0.308,0.235 0.642,0.43 0.946,0.669 c0.132,0.091 0.302,0.205 0.465,0.124 c0.17,-0.083 0.312,-0.216 0.472,-0.317 c0.801,-0.581 1.618,-1.137 2.42,-1.714 c1.871,-1.31 3.726,-2.64 5.597,-3.948 c0.471,-0.344 0.95,-0.679 1.427,-1.016 c1.672,-1.17 3.329,-2.361 5.002,-3.529 c1.704,-1.202 3.401,-2.414 5.11,-3.608 c1.4,-1.009 2.821,-1.986 4.224,-2.989 c0.135,-0.086 0.268,-0.216 0.442,-0.196 c3.984,-0.005 7.967,-0.002 11.951,-0.002 c0.313,0.016 0.632,-0.029 0.941,0.039 c1.157,0.123 2.284,0.539 3.256,1.178 c0.297,0.185 0.558,0.417 0.83,0.635 c0.134,0.169 0.342,0.259 0.46,0.442 c0.086,0.136 0.233,0.221 0.318,0.359 c0.905,1.046 1.476,2.362 1.685,3.727 c0.087,0.462 0.059,0.933 0.067,1.401 v70.945 c-0.009,0.491 0.026,0.987 -0.072,1.47 c-0.044,0.19 -0.037,0.39 -0.103,0.574 c-0.08,0.314 -0.174,0.622 -0.276,0.929 c-0.334,0.832 -0.778,1.631 -1.384,2.297 c-0.085,0.069 -0.129,0.171 -0.206,0.245 c-0.417,0.428 -0.883,0.807 -1.381,1.138 c-0.889,0.574 -1.901,0.952 -2.947,1.111 c-0.739,0.109 -1.493,0.07 -2.24,0.089 c-65.774,0.002 -131.548,0 -197.322,0.001 c-0.135,-0.003 -0.269,0.008 -0.402,-0.01 m161.686,-69.996 c-0.927,-0.649 -1.851,-1.304 -2.773,-1.961 c-2.078,-1.451 -4.135,-2.932 -6.213,-4.384 c-0.578,-0.396 -1.137,-0.821 -1.717,-1.215 c-1.704,-1.2 -3.401,-2.411 -5.106,-3.61 c-0.118,-0.106 -0.289,-0.165 -0.349,-0.321 c0.045,-0.032 0.086,-0.089 0.151,-0.082 c0.424,-0.007 0.85,-0.038 1.274,-0.002 c4.811,0.002 30.165,0.002 31.156,0.001 c0.112,0.004 0.235,-0.019 0.339,0.044 c-10e-4,0.023 -0.002,0.071 -0.002,0.094 c-0.242,0.219 -0.526,0.383 -0.782,0.582 c-0.485,0.327 -0.949,0.683 -1.434,1.009 c-0.869,0.623 -1.75,1.23 -2.62,1.852 c-1.844,1.313 -3.701,2.61 -5.545,3.924 c-1.938,1.354 -3.858,2.732 -5.794,4.087 c-0.107,0.065 -0.219,0.162 -0.351,0.127 c-0.09,-0.028 -0.159,-0.092 -0.234,-0.145 m-17.968,-12.695 c-1.157,-0.823 -2.322,-1.633 -3.478,-2.458 c-0.579,-0.417 -1.169,-0.814 -1.739,-1.241 c-10e-4,-0.057 -10e-4,-0.117 -10e-4,-0.176 c15.671,-0.002 31.342,-0.003 47.013,0 c-0.009,0.071 0.021,0.167 -0.059,0.203 c-0.513,0.365 -1.02,0.738 -1.542,1.09 c-1.339,0.967 -2.706,1.899 -4.042,2.871 c-0.101,0.089 -0.227,0.158 -0.362,0.16 c-0.038,-0.059 -0.093,-0.116 -0.084,-0.193 c-10e-4,-0.851 0,-1.703 0,-2.554 c-0.01,-0.312 0.027,-0.626 -0.042,-0.933 c-0.106,-0.054 -0.225,-0.054 -0.338,-0.068 c-0.55,-0.027 -32.401,-0.012 -33.253,-0.014 c-0.36,0.01 -0.725,-0.032 -1.079,0.047 c-0.142,0.147 -0.054,0.375 -0.12,0.553 c-0.009,1.038 0.001,2.077 -0.004,3.114 c-0.001,0.094 -0.114,0.092 -0.179,0.078 c-0.25,-0.131 -0.453,-0.33 -0.691,-0.479 "
              id="path22" style="fill:#111111;fill-opacity:1;fill-rule:nonzero;" visibility="hidden"></path>
          </g>
          <g id="g24" transform="translate(69.2294,120.4106)">
            <path
              d="M0,0 c-0.003,0.121 0.126,0.175 0.228,0.183 c3.27,0.002 6.54,0 9.811,0.001 c0.098,0.003 0.192,-0.027 0.289,-0.042 c0.049,-0.19 0.074,-0.386 0.15,-0.568 c0.034,-0.309 0.082,-0.615 0.129,-0.923 c0.059,-0.275 0.158,-0.547 0.144,-0.833 c0.029,-0.176 0.103,-0.345 0.115,-0.525 c0.014,-0.153 0.08,-0.299 0.072,-0.455 c0.003,-0.36 0.197,-0.69 0.187,-1.052 c-0.008,-0.09 0.033,-0.174 0.037,-0.263 c0.016,-0.219 0.128,-0.418 0.153,-0.636 c0.038,-0.24 0.16,-0.483 0.392,-0.584 c0.352,-0.129 0.693,-0.282 1.039,-0.428 c0.325,-0.117 0.632,-0.278 0.957,-0.396 c0.363,-0.146 0.725,-0.298 1.084,-0.456 c0.114,-0.045 0.228,-0.107 0.357,-0.093 c0.14,0.012 0.306,-0.037 0.424,0.066 c0.215,0.165 0.463,0.28 0.669,0.458 c0.277,0.232 0.611,0.384 0.879,0.626 c0.504,0.331 0.988,0.689 1.48,1.038 c0.255,0.153 0.482,0.348 0.733,0.508 c0.261,0.164 0.486,0.395 0.78,0.504 c0.198,-0.109 0.33,-0.297 0.495,-0.446 c0.293,-0.285 0.573,-0.581 0.868,-0.864 c0.132,-0.115 0.261,-0.236 0.372,-0.375 c0.303,-0.298 0.595,-0.608 0.912,-0.892 c0.23,-0.198 0.394,-0.461 0.642,-0.639 c0.188,-0.211 0.417,-0.383 0.598,-0.601 c0.09,-0.136 0.247,-0.206 0.345,-0.335 c0.169,-0.207 0.375,-0.375 0.567,-0.559 c0.087,-0.077 0.134,-0.191 0.229,-0.262 c0.336,-0.249 0.574,-0.601 0.895,-0.867 c0.124,-0.115 0.211,-0.264 0.34,-0.375 c0.142,-0.121 0.261,-0.266 0.395,-0.394 c0.061,-0.064 0.141,-0.107 0.192,-0.181 c0.11,-0.153 0.289,-0.251 0.369,-0.427 c-0.071,-0.141 -0.152,-0.276 -0.256,-0.393 c-0.075,-0.134 -0.154,-0.267 -0.25,-0.387 c-0.118,-0.112 -0.181,-0.267 -0.297,-0.382 c-0.127,-0.194 -0.267,-0.38 -0.43,-0.546 c-0.232,-0.396 -0.563,-0.722 -0.803,-1.113 c-0.342,-0.425 -0.659,-0.871 -0.985,-1.308 c-0.055,-0.105 -0.171,-0.171 -0.195,-0.292 c-0.083,-0.309 -0.017,-0.637 0.127,-0.919 c0.085,-0.276 0.233,-0.527 0.327,-0.8 c0.133,-0.286 0.234,-0.585 0.368,-0.87 c0.107,-0.319 0.268,-0.616 0.385,-0.932 c0.081,-0.188 0.133,-0.397 0.283,-0.545 c0.055,-0.057 0.087,-0.137 0.153,-0.186 c0.345,-0.115 0.715,-0.107 1.062,-0.213 c0.313,-0.054 0.626,-0.115 0.942,-0.149 c0.48,-0.102 0.966,-0.172 1.445,-0.282 c0.236,-0.001 0.466,-0.065 0.702,-0.088 c0.439,-0.119 0.903,-0.14 1.336,-0.279 c0.084,-0.059 0.086,-0.182 0.1,-0.276 c0,-3.182 0.001,-6.364 0,-9.547 c-0.007,-0.122 -0.065,-0.264 -0.195,-0.298 c-0.115,-0.028 -0.234,-0.005 -0.35,-0.026 c-0.158,-0.044 -0.318,-0.076 -0.477,-0.117 c-0.41,-0.023 -0.81,-0.124 -1.217,-0.175 c-0.255,-0.027 -0.503,-0.103 -0.76,-0.102 c-0.304,-0.093 -0.62,-0.112 -0.933,-0.158 c-0.26,-0.057 -0.528,-0.05 -0.786,-0.116 c-0.221,-0.053 -0.448,-0.076 -0.671,-0.118 c-0.23,-0.042 -0.34,-0.267 -0.459,-0.442 c-0.09,-0.17 -0.157,-0.352 -0.22,-0.534 c-0.324,-0.689 -0.592,-1.403 -0.908,-2.096 c-0.121,-0.339 -0.345,-0.655 -0.335,-1.028 c0.04,-0.154 0.094,-0.312 0.197,-0.437 c0.434,-0.58 0.855,-1.171 1.294,-1.749 c0.334,-0.488 0.712,-0.945 1.062,-1.42 c0.075,-0.133 0.171,-0.251 0.27,-0.367 c0.096,-0.207 0.258,-0.372 0.381,-0.563 c0.022,-0.067 0.087,-0.155 0.022,-0.219 c-0.14,-0.195 -0.324,-0.353 -0.49,-0.526 c-0.426,-0.426 -0.852,-0.852 -1.277,-1.278 c-0.171,-0.168 -0.363,-0.316 -0.509,-0.506 c-0.202,-0.199 -0.422,-0.38 -0.601,-0.602 c-0.211,-0.149 -0.377,-0.349 -0.563,-0.527 c-0.17,-0.155 -0.298,-0.352 -0.485,-0.489 c-0.077,-0.064 -0.143,-0.138 -0.204,-0.217 c-0.107,-0.131 -0.261,-0.214 -0.357,-0.355 c-0.087,-0.125 -0.22,-0.203 -0.326,-0.31 c-0.751,-0.74 -1.487,-1.495 -2.237,-2.235 c-0.05,-0.042 -0.115,-0.058 -0.173,-0.084 c-0.273,0.109 -0.474,0.333 -0.725,0.479 c-0.159,0.118 -0.329,0.222 -0.475,0.355 c-0.185,0.109 -0.362,0.236 -0.526,0.375 c-0.503,0.345 -0.984,0.721 -1.487,1.067 c-0.347,0.239 -0.673,0.509 -1.027,0.739 c-0.143,0.122 -0.316,0.214 -0.503,0.24 c-0.372,-0.01 -0.704,-0.197 -1.042,-0.331 c-0.404,-0.156 -0.799,-0.334 -1.205,-0.488 c-0.334,-0.122 -0.654,-0.282 -0.991,-0.399 c-0.262,-0.124 -0.583,-0.194 -0.741,-0.46 c-0.099,-0.282 -0.125,-0.581 -0.18,-0.872 c-0.016,-0.381 -0.121,-0.751 -0.19,-1.124 c-0.005,-0.13 -0.041,-0.254 -0.07,-0.38 c-0.034,-0.239 -0.032,-0.485 -0.116,-0.713 c-0.049,-0.429 -0.13,-0.853 -0.229,-1.273 c-0.008,-0.114 0.005,-0.232 -0.034,-0.343 c0.002,-0.292 -0.116,-0.566 -0.165,-0.85 c-0.172,-0.086 -0.372,-0.035 -0.557,-0.044 c-0.17,0.019 -0.335,-0.059 -0.504,-0.022 c-0.232,0.041 -0.467,0.019 -0.699,0.004 c-0.138,-0.008 -0.275,0.022 -0.412,0.018 c-0.26,-0.008 -0.521,0.052 -0.777,-0.01 c-0.335,-0.077 -0.672,0.06 -1.007,-0.007 c-0.373,-0.049 -0.742,0.041 -1.114,0.015 c-0.334,-0.053 -0.677,-0.042 -1.011,0.001 c-0.436,-0.053 -0.876,-0.014 -1.313,-0.03 c-0.203,-0.003 -0.406,-0.018 -0.606,0.014 c-0.174,0.028 -0.35,0.017 -0.525,0.006 c-0.225,-0.028 -0.449,0.028 -0.674,0.011 c-0.323,-0.02 -0.65,-0.017 -0.969,0.041 c-0.096,0.299 -0.131,0.612 -0.173,0.922 c-0.081,0.268 -0.096,0.548 -0.156,0.819 c-0.025,0.157 -0.068,0.313 -0.057,0.473 c-0.088,0.443 -0.195,0.887 -0.239,1.338 c-0.111,0.512 -0.206,1.026 -0.253,1.548 c-0.064,0.244 -0.111,0.526 -0.34,0.673 c-0.269,0.129 -0.547,0.242 -0.831,0.337 c-0.73,0.324 -1.49,0.573 -2.22,0.898 c-0.175,0.06 -0.346,0.128 -0.516,0.198 c-0.138,0.066 -0.293,0.044 -0.44,0.038 c-0.167,-0.074 -0.305,-0.197 -0.458,-0.297 c-0.77,-0.557 -1.544,-1.109 -2.308,-1.674 c-0.273,-0.175 -0.514,-0.397 -0.793,-0.562 c-0.167,-0.105 -0.305,-0.251 -0.481,-0.345 c-0.209,-0.111 -0.353,-0.33 -0.592,-0.386 c-0.101,-0.011 -0.141,0.114 -0.207,0.169 c-0.474,0.439 -0.916,0.912 -1.38,1.361 c-0.263,0.197 -0.474,0.452 -0.712,0.678 c-0.351,0.336 -0.669,0.71 -1.05,1.013 c-0.541,0.537 -1.078,1.078 -1.617,1.617 c-0.387,0.414 -0.808,0.795 -1.203,1.202 c-0.334,0.347 -0.699,0.662 -1.042,0.999 c-0.001,0.067 -0.001,0.133 0.001,0.199 c0.157,0.129 0.238,0.321 0.362,0.476 c0.082,0.12 0.188,0.218 0.263,0.341 c0.16,0.259 0.364,0.488 0.538,0.738 c0.237,0.314 0.456,0.642 0.705,0.948 c0.1,0.115 0.176,0.249 0.267,0.371 c0.188,0.218 0.338,0.463 0.515,0.688 c0.132,0.182 0.278,0.352 0.401,0.54 c0.084,0.13 0.205,0.242 0.242,0.397 c0.07,0.282 -0.09,0.542 -0.198,0.792 c-0.086,0.296 -0.258,0.556 -0.353,0.849 c-0.315,0.705 -0.593,1.424 -0.919,2.123 c-0.059,0.079 -0.073,0.205 -0.176,0.236 c-0.292,0.103 -0.587,0.209 -0.898,0.231 c-0.307,0.037 -0.619,0.067 -0.907,0.186 c-0.204,-0.007 -0.4,0.042 -0.6,0.074 c-0.286,0.033 -0.559,0.136 -0.846,0.165 c-0.395,0.067 -0.791,0.126 -1.183,0.212 c-0.275,0.054 -0.546,0.122 -0.826,0.15 c-0.113,0.004 -0.216,0.052 -0.322,0.089 c-0.119,0.102 -0.08,0.26 -0.094,0.397 c-0.03,0.127 -0.03,0.258 -0.024,0.386 c0.064,0.485 0.01,0.974 0.03,1.461 c-0.021,0.501 0.008,1.002 -0.001,1.504 c-0.005,0.275 -0.012,0.549 -0.022,0.824 c-0.014,0.227 0.031,0.452 0.023,0.679 c0.008,0.301 -0.018,0.6 -0.02,0.901 c0.029,0.224 0.019,0.451 0.02,0.677 c0.01,0.235 -0.053,0.468 -0.019,0.703 c0.031,0.165 0.016,0.333 0.019,0.5 c0.003,0.626 -0.009,1.251 0.003,1.876 c0.009,0.061 0.03,0.119 0.044,0.177 c0.249,0.142 0.541,0.118 0.815,0.16 c0.233,-0.014 0.446,0.105 0.676,0.12 c0.403,0.066 0.809,0.089 1.209,0.179 c0.179,-0.003 0.352,0.045 0.527,0.073 c0.251,0.028 0.499,0.082 0.749,0.118 c0.094,0.006 0.191,-0.007 0.284,0.017 c0.435,0.101 0.893,0.103 1.315,0.259 c0.264,0.192 0.371,0.514 0.473,0.81 c0.409,0.985 0.8,1.978 1.202,2.967 c0.039,0.083 0.036,0.176 0.029,0.265 c-0.166,0.299 -0.377,0.574 -0.582,0.85 c-0.099,0.172 -0.236,0.318 -0.339,0.487 c-0.077,0.165 -0.225,0.279 -0.313,0.437 c-0.107,0.201 -0.265,0.365 -0.388,0.553 c-0.108,0.166 -0.246,0.312 -0.343,0.485 c-0.107,0.188 -0.265,0.338 -0.378,0.522 c-0.158,0.175 -0.252,0.395 -0.405,0.573 c-0.129,0.206 -0.276,0.4 -0.417,0.597 c-0.061,0.071 -0.094,0.167 -0.096,0.26 c0.885,0.883 1.76,1.777 2.662,2.643 c0.236,0.241 0.479,0.475 0.705,0.724 c0.181,0.117 0.281,0.321 0.466,0.433 c0.846,0.82 1.676,1.658 2.509,2.492 c0.156,0.17 0.317,0.335 0.483,0.495 c0.096,0.083 0.203,0.153 0.284,0.252 c0.068,10e-4 0.137,0.007 0.205,-0.001 c0.31,-0.187 0.601,-0.404 0.898,-0.612 c0.223,-0.181 0.478,-0.319 0.703,-0.498 c0.227,-0.146 0.44,-0.312 0.665,-0.461 c0.18,-0.166 0.405,-0.268 0.592,-0.424 c0.175,-0.142 0.38,-0.242 0.558,-0.38 c0.299,-0.231 0.628,-0.423 0.912,-0.672 c0.166,-0.098 0.379,-0.152 0.562,-0.067 c1.172,0.465 2.335,0.953 3.508,1.416 c0.123,0.038 0.157,0.172 0.217,0.271 c0.09,0.156 0.108,0.338 0.123,0.514 c0.042,0.145 0.005,0.299 0.047,0.444 c0.051,0.214 0.085,0.432 0.141,0.645 c0.06,0.19 -0.012,0.396 0.055,0.585 c0.101,0.355 0.142,0.72 0.193,1.083 c-0.007,0.262 0.104,0.504 0.147,0.757 C-0.207,-0.919 -0.085,-0.461 0,0 M3.601,-8.826 C3.48,-8.848 3.357,-8.826 3.236,-8.837 C2.646,-8.94 2.047,-8.995 1.463,-9.132 C1.294,-9.137 1.136,-9.205 0.973,-9.243 C0.432,-9.376 -0.099,-9.546 -0.631,-9.706 c-0.382,-0.158 -0.774,-0.29 -1.149,-0.465 c-0.576,-0.225 -1.115,-0.532 -1.66,-0.82 c-0.255,-0.159 -0.521,-0.301 -0.767,-0.475 c-0.379,-0.211 -0.711,-0.493 -1.073,-0.731 c-0.422,-0.341 -0.847,-0.679 -1.252,-1.039 c-0.115,-0.069 -0.2,-0.175 -0.296,-0.268 c-0.188,-0.187 -0.376,-0.375 -0.563,-0.563 c-0.093,-0.095 -0.203,-0.177 -0.266,-0.297 c-0.202,-0.202 -0.36,-0.442 -0.561,-0.645 c-0.197,-0.254 -0.405,-0.499 -0.588,-0.763 c-0.21,-0.304 -0.438,-0.597 -0.624,-0.916 c-0.405,-0.606 -0.752,-1.248 -1.063,-1.906 c-0.329,-0.733 -0.65,-1.475 -0.867,-2.252 c-0.116,-0.292 -0.158,-0.605 -0.262,-0.902 c-0.142,-0.513 -0.196,-1.044 -0.318,-1.562 c-0.008,-0.261 -0.086,-0.515 -0.091,-0.778 c-0.069,-0.224 0.012,-0.465 -0.06,-0.687 c-0.019,-0.347 -0.001,-0.697 -0.044,-1.042 c10e-4,-0.19 -0.017,-0.383 0.027,-0.57 c0.026,-0.235 -0.004,-0.472 0.016,-0.708 c0.055,-0.184 0.019,-0.38 0.04,-0.569 c0.027,-0.239 0.055,-0.478 0.102,-0.713 c-0.015,-0.373 0.14,-0.725 0.185,-1.093 c0.044,-0.392 0.187,-0.763 0.28,-1.146 c0.065,-0.337 0.21,-0.652 0.3,-0.983 c0.054,-0.146 0.12,-0.289 0.158,-0.441 c0.175,-0.412 0.329,-0.833 0.53,-1.234 c0.245,-0.479 0.466,-0.971 0.754,-1.427 c0.348,-0.591 0.735,-1.158 1.15,-1.704 c0.156,-0.149 0.25,-0.348 0.412,-0.492 c0.167,-0.219 0.348,-0.426 0.526,-0.637 l0.903,-0.903 c0.137,-0.124 0.248,-0.28 0.407,-0.379 c0.142,-0.109 0.273,-0.23 0.409,-0.345 c0.791,-0.668 1.66,-1.241 2.552,-1.767 c0.255,-0.116 0.486,-0.275 0.743,-0.385 c0.252,-0.147 0.531,-0.239 0.786,-0.378 c0.406,-0.161 0.804,-0.345 1.223,-0.471 c0.291,-0.099 0.582,-0.194 0.874,-0.29 c0.348,-0.091 0.701,-0.165 1.045,-0.271 c0.474,-0.099 0.956,-0.153 1.428,-0.262 c0.129,-0.021 0.262,0.011 0.389,-0.024 c0.086,-0.027 0.178,-0.012 0.265,-0.036 c0.148,-0.049 0.306,-0.002 0.457,-0.033 c0.186,-0.063 0.381,0.019 0.57,-0.021 c0.326,-0.001 0.652,-0.048 0.978,-0.013 c0.158,0.014 0.318,-0.003 0.476,0.024 c0.341,0.032 0.691,-0.012 1.029,0.054 c0.152,0.004 0.298,0.055 0.451,0.042 c0.156,-0.015 0.302,0.049 0.454,0.072 c0.399,0.074 0.799,0.146 1.197,0.231 c0.637,0.183 1.29,0.327 1.907,0.572 c0.602,0.195 1.173,0.474 1.754,0.724 c0.202,0.135 0.431,0.22 0.645,0.335 c0.118,0.104 0.271,0.149 0.397,0.242 c0.376,0.184 0.714,0.434 1.065,0.664 c0.217,0.128 0.407,0.294 0.614,0.436 c0.121,0.102 0.308,0.093 0.435,0.005 c0.507,-0.356 1.012,-0.717 1.52,-1.071 c0.528,-0.361 1.038,-0.745 1.569,-1.101 c0.144,-0.095 0.264,-0.227 0.433,-0.28 c0.138,-0.062 0.293,-0.041 0.44,-0.036 c0.13,0.08 0.227,0.201 0.337,0.305 c0.197,0.205 0.405,0.397 0.603,0.6 c0.211,0.287 0.49,0.514 0.73,0.774 c0.096,0.153 0.245,0.258 0.354,0.4 c0.049,0.18 0.02,0.393 -0.124,0.522 c-0.696,0.967 -1.443,1.896 -2.127,2.87 c-0.212,0.201 -0.37,0.445 -0.51,0.698 c0.084,0.24 0.29,0.405 0.408,0.627 c0.387,0.592 0.755,1.198 1.052,1.84 c0.173,0.349 0.35,0.697 0.479,1.064 c0.105,0.218 0.196,0.441 0.267,0.672 c0.158,0.454 0.32,0.908 0.428,1.378 c0.059,0.216 0.126,0.429 0.178,0.647 c0.084,0.44 0.156,0.881 0.259,1.317 c-0.005,0.228 0.037,0.452 0.077,0.675 c0.008,0.11 -0.009,0.22 0.015,0.328 c0.06,0.218 -0.006,0.449 0.041,0.67 c0.041,0.154 0.008,0.314 0.032,0.47 c0.045,0.407 0.006,0.817 -0.022,1.224 c-0.066,0.264 0.013,0.541 -0.054,0.805 c-0.006,0.24 -0.048,0.474 -0.084,0.71 c0.01,0.255 -0.082,0.498 -0.118,0.748 c-0.109,0.657 -0.277,1.303 -0.46,1.943 c-0.102,0.267 -0.157,0.551 -0.282,0.808 c-0.101,0.335 -0.243,0.655 -0.375,0.977 c-0.069,0.198 -0.186,0.372 -0.265,0.565 c-0.12,0.283 -0.256,0.56 -0.417,0.822 c-0.083,0.195 -0.204,0.37 -0.31,0.553 c-0.34,0.565 -0.7,1.119 -1.102,1.641 c-0.157,0.23 -0.357,0.423 -0.514,0.65 c-0.148,0.131 -0.249,0.303 -0.394,0.436 c-0.097,0.162 -0.254,0.272 -0.374,0.414 c-0.106,0.155 -0.247,0.28 -0.381,0.409 c-0.213,0.133 -0.345,0.36 -0.559,0.491 c-0.659,0.616 -1.398,1.143 -2.142,1.653 c-0.608,0.348 -1.189,0.753 -1.84,1.016 c-0.6,0.32 -1.244,0.542 -1.871,0.796 c-0.184,0.055 -0.371,0.101 -0.551,0.164 c-0.466,0.168 -0.955,0.251 -1.433,0.373 c-0.32,0.081 -0.649,0.114 -0.97,0.19 c-0.265,0 -0.519,0.087 -0.783,0.086 C6.647,-8.805 6.331,-8.79 6.014,-8.796 C5.78,-8.738 5.538,-8.764 5.3,-8.761 C4.913,-8.786 4.525,-8.741 4.139,-8.767 c-0.175,-0.06 -0.364,0 -0.538,-0.059 "
              id="path26" style="fill:#111111;fill-opacity:1;fill-rule:nonzero;"></path>
          </g>

          <g id="g32" transform="translate(73.4574,107.9878)">
            <path
              d="M0,0 c0.229,0.04 0.465,0.008 0.697,0.018 c0.59,-0.012 1.186,0.041 1.77,-0.07 c0.215,-0.002 0.419,-0.085 0.634,-0.082 c0.35,-0.041 0.689,-0.146 1.039,-0.199 c0.542,-0.137 1.082,-0.293 1.601,-0.504 c0.342,-0.1 0.66,-0.267 0.988,-0.403 c0.313,-0.143 0.61,-0.314 0.91,-0.479 c0.328,-0.195 0.662,-0.382 0.965,-0.615 c0.521,-0.331 0.985,-0.741 1.459,-1.133 c0.243,-0.259 0.502,-0.5 0.752,-0.752 c0.279,-0.323 0.565,-0.639 0.825,-0.978 c0.689,-0.884 1.255,-1.859 1.696,-2.887 c0.18,-0.381 0.323,-0.777 0.433,-1.186 c0.168,-0.448 0.266,-0.918 0.384,-1.382 c0.061,-0.186 0.067,-0.379 0.105,-0.57 c0.021,-0.261 0.094,-0.517 0.082,-0.782 c0.03,-0.126 0.039,-0.256 0.069,-0.382 c0.013,-0.146 -0.007,-0.295 0.01,-0.441 c0.039,-0.206 0.045,-0.42 0.011,-0.628 c-0.038,-0.128 0.005,-0.262 -0.012,-0.392 c-0.013,-0.214 0.012,-0.429 -0.043,-0.639 c-0.061,-0.21 -0.013,-0.432 -0.071,-0.643 c0.002,-0.214 -0.087,-0.417 -0.084,-0.632 c-0.076,-0.377 -0.196,-0.744 -0.265,-1.123 c-0.399,-1.432 -1.035,-2.798 -1.879,-4.021 c-0.185,-0.263 -0.362,-0.535 -0.58,-0.774 c-0.099,-0.137 -0.202,-0.272 -0.322,-0.392 c-0.149,-0.223 -0.384,-0.371 -0.53,-0.596 c-0.123,-0.115 -0.23,-0.247 -0.359,-0.354 c-0.206,-0.128 -0.334,-0.346 -0.533,-0.482 c-0.067,-0.044 -0.119,-0.107 -0.181,-0.159 c-0.266,-0.181 -0.5,-0.405 -0.772,-0.58 c-0.873,-0.643 -1.84,-1.147 -2.844,-1.55 c-0.268,-0.129 -0.561,-0.187 -0.836,-0.296 c-0.362,-0.112 -0.722,-0.252 -1.1,-0.293 c-0.633,-0.168 -1.28,-0.263 -1.93,-0.317 c-0.212,-0.007 -0.424,0.01 -0.634,-0.008 c-0.213,-0.05 -0.432,-0.024 -0.647,-0.031 c-0.127,-0.01 -0.246,0.053 -0.373,0.039 c-0.4,-0.022 -0.795,0.043 -1.191,0.085 c-0.777,0.115 -1.549,0.286 -2.3,0.519 c-0.581,0.204 -1.164,0.408 -1.708,0.699 c-0.593,0.271 -1.16,0.599 -1.694,0.973 c-0.332,0.213 -0.649,0.449 -0.952,0.701 c-0.168,0.173 -0.384,0.29 -0.546,0.469 c-0.313,0.326 -0.64,0.638 -0.958,0.958 c-0.152,0.129 -0.227,0.321 -0.375,0.451 c-0.13,0.113 -0.194,0.28 -0.319,0.397 c-0.336,0.447 -0.659,0.907 -0.93,1.397 c-0.117,0.167 -0.184,0.362 -0.297,0.53 c-0.457,0.9 -0.829,1.845 -1.09,2.82 c-0.005,0.15 -0.064,0.29 -0.091,0.435 c-0.054,0.27 -0.116,0.538 -0.169,0.808 c-0.011,0.187 -0.056,0.37 -0.081,0.556 c-0.004,0.162 -0.004,0.324 -0.024,0.484 c-0.023,0.153 -0.002,0.31 -0.05,0.458 c-0.004,0.373 -0.007,0.747 10e-4,1.119 c0.064,0.214 0.009,0.439 0.053,0.653 c0.032,0.164 -0.002,0.333 0.042,0.494 c0.034,0.353 0.116,0.701 0.191,1.048 c0.036,0.342 0.143,0.672 0.238,1.001 c0.228,0.822 0.558,1.611 0.938,2.372 c0.302,0.55 0.604,1.105 0.983,1.609 c0.116,0.16 0.227,0.323 0.343,0.482 c0.138,0.13 0.211,0.312 0.355,0.436 c0.152,0.127 0.248,0.301 0.393,0.433 c0.101,0.17 0.271,0.28 0.397,0.429 c0.14,0.136 0.264,0.291 0.429,0.398 c0.068,0.056 0.123,0.13 0.198,0.178 c0.13,0.08 0.212,0.217 0.343,0.296 c0.851,0.7 1.792,1.286 2.786,1.763 c0.289,0.125 0.569,0.273 0.871,0.366 c0.123,0.058 0.257,0.089 0.38,0.148 c0.164,0.076 0.347,0.093 0.514,0.162 c0.394,0.15 0.809,0.231 1.219,0.322 c0.165,0.008 0.317,0.091 0.484,0.081 C-0.789,-0.106 -0.395,-0.046 0,0 m0.6,-4.545 c-0.19,-0.041 -0.388,-0.02 -0.581,-0.03 c-0.174,0.011 -0.334,-0.065 -0.502,-0.089 c-0.263,-0.042 -0.518,-0.112 -0.778,-0.16 c-0.153,-0.021 -0.295,-0.083 -0.441,-0.128 c-0.2,-0.071 -0.41,-0.12 -0.596,-0.226 c-0.516,-0.195 -1.002,-0.457 -1.466,-0.753 c-0.223,-0.165 -0.452,-0.322 -0.673,-0.49 c-0.167,-0.147 -0.337,-0.29 -0.512,-0.428 c-0.175,-0.176 -0.353,-0.349 -0.526,-0.528 c-0.064,-0.108 -0.158,-0.191 -0.245,-0.281 c-0.196,-0.256 -0.403,-0.503 -0.582,-0.772 c-0.176,-0.288 -0.36,-0.571 -0.517,-0.87 c-0.184,-0.346 -0.322,-0.713 -0.469,-1.075 c-0.084,-0.358 -0.246,-0.696 -0.287,-1.064 c-0.094,-0.498 -0.207,-0.998 -0.183,-1.507 c-0.026,-0.402 0.006,-0.803 0,-1.204 c0.048,-0.328 0.072,-0.66 0.14,-0.986 c0.076,-0.441 0.243,-0.859 0.363,-1.29 c0.115,-0.239 0.191,-0.496 0.322,-0.728 c0.151,-0.276 0.256,-0.578 0.45,-0.828 c0.121,-0.16 0.199,-0.346 0.325,-0.503 c0.157,-0.228 0.351,-0.426 0.512,-0.652 c0.288,-0.301 0.586,-0.593 0.883,-0.886 c0.361,-0.279 0.717,-0.567 1.099,-0.817 c0.227,-0.104 0.422,-0.264 0.653,-0.36 c0.35,-0.194 0.726,-0.329 1.093,-0.486 c0.358,-0.113 0.72,-0.212 1.084,-0.305 c0.371,-0.059 0.743,-0.107 1.114,-0.16 c0.177,-0.003 0.354,-0.001 0.532,-0.008 c0.35,-0.033 0.701,0.02 1.052,0.007 c0.349,0.037 0.691,0.134 1.042,0.161 c0.255,0.068 0.514,0.124 0.765,0.209 c0.395,0.104 0.767,0.274 1.139,0.44 c0.207,0.124 0.44,0.2 0.637,0.339 c0.248,0.116 0.46,0.293 0.692,0.436 c0.28,0.206 0.566,0.407 0.807,0.659 c0.193,0.128 0.336,0.314 0.506,0.47 c0.098,0.081 0.147,0.202 0.243,0.283 c0.275,0.247 0.449,0.58 0.674,0.868 c0.171,0.215 0.287,0.464 0.435,0.694 c0.187,0.394 0.412,0.772 0.531,1.195 c0.112,0.256 0.185,0.527 0.253,0.798 c0.071,0.408 0.204,0.807 0.209,1.224 c0.035,0.134 0.027,0.272 0.039,0.408 c0.047,0.149 0.023,0.305 0.033,0.457 c0.025,0.265 0.047,0.54 -0.033,0.797 c-0.037,0.442 -0.066,0.887 -0.189,1.317 c-0.074,0.356 -0.155,0.713 -0.302,1.048 c-0.059,0.217 -0.15,0.422 -0.241,0.627 c-0.173,0.317 -0.31,0.653 -0.505,0.955 c-0.151,0.281 -0.361,0.52 -0.532,0.787 c-0.13,0.134 -0.245,0.283 -0.351,0.436 c-0.215,0.212 -0.427,0.426 -0.64,0.639 c-0.096,0.093 -0.18,0.198 -0.296,0.266 c-0.309,0.26 -0.629,0.506 -0.972,0.72 c-0.435,0.304 -0.92,0.524 -1.403,0.738 C4.032,-5.016 3.636,-4.91 3.244,-4.801 C3.11,-4.769 2.98,-4.711 2.84,-4.715 C2.66,-4.69 2.483,-4.647 2.306,-4.61 C2.201,-4.598 2.094,-4.612 1.992,-4.584 c-0.151,0.039 -0.309,0 -0.461,0.029 c-0.2,0.045 -0.406,0.02 -0.609,0.027 C0.815,-4.532 0.705,-4.516 0.6,-4.545 "
              id="path34" style="fill:#111111;fill-opacity:1;fill-rule:nonzero;"></path>
          </g>
          <g id="g36" transform="translate(119.9271,107.7007)">
            <path
              d="M0,0 C0.214,-0.005 0.422,0.058 0.637,0.042 C1.312,0.03 1.99,0.071 2.664,0.008 C2.821,-0.003 2.981,0.02 3.137,-0.017 C4.075,-0.09 5.013,-0.238 5.918,-0.504 C6.163,-0.597 6.426,-0.631 6.669,-0.728 C6.874,-0.821 7.094,-0.867 7.298,-0.963 C7.613,-1.119 7.962,-1.227 8.226,-1.471 C8.255,-1.702 8.179,-1.923 8.122,-2.145 C8.012,-2.603 7.877,-3.056 7.764,-3.514 C7.708,-3.744 7.622,-3.966 7.585,-4.201 C7.492,-4.611 7.368,-5.014 7.268,-5.423 C7.162,-5.853 7.051,-6.281 6.937,-6.708 C6.789,-7.169 6.708,-7.647 6.577,-8.113 C6.464,-8.497 6.378,-8.888 6.268,-9.272 C6.183,-9.527 6.151,-9.796 6.071,-10.052 c-0.07,-0.241 -0.108,-0.494 -0.22,-0.721 c-0.276,-0.082 -0.581,-0.118 -0.853,-0.003 c-0.003,0.175 -0.047,0.347 -0.041,0.522 c-0.004,0.173 0.01,0.347 -0.006,0.519 c-0.07,0.234 -0.002,0.481 -0.046,0.718 c-0.04,0.185 -0.009,0.373 -0.03,0.559 c-0.055,0.164 -0.013,0.342 -0.057,0.509 c-0.018,0.398 -0.109,0.79 -0.166,1.184 c-0.05,0.274 -0.098,0.547 -0.157,0.819 c-0.131,0.437 -0.264,0.876 -0.424,1.303 c-0.106,0.191 -0.171,0.4 -0.277,0.589 c-0.275,0.536 -0.619,1.045 -1.063,1.456 c-0.654,0.708 -1.586,1.134 -2.543,1.215 c-0.31,0.057 -0.628,0.048 -0.941,0.035 c-0.242,0.014 -0.476,-0.056 -0.715,-0.075 c-0.161,0.005 -0.311,-0.064 -0.466,-0.098 c-0.331,-0.098 -0.672,-0.172 -0.976,-0.34 c-0.25,-0.105 -0.484,-0.243 -0.726,-0.365 c-0.238,-0.113 -0.43,-0.296 -0.65,-0.437 C-4.596,-2.89 -4.888,-3.14 -5.18,-3.385 C-5.568,-3.786 -5.987,-4.16 -6.344,-4.59 C-7.62,-6.068 -8.607,-7.779 -9.365,-9.575 c-0.43,-0.985 -0.758,-2.009 -1.052,-3.042 c-0.147,-0.544 -0.278,-1.093 -0.38,-1.649 c-0.129,-0.598 -0.194,-1.208 -0.29,-1.811 c-0.008,-0.108 0.012,-0.218 -0.017,-0.324 c-0.039,-0.115 -0.013,-0.238 -0.029,-0.356 c-0.067,-0.378 -0.003,-0.765 -0.052,-1.145 c-0.062,-0.369 0.039,-0.738 0.021,-1.108 c-0.009,-0.114 0.012,-0.226 0.035,-0.339 c0,-0.292 0.066,-0.578 0.114,-0.865 c0.193,-0.987 0.526,-1.968 1.119,-2.79 c0.247,-0.394 0.597,-0.704 0.923,-1.032 c0.412,-0.317 0.853,-0.597 1.327,-0.813 c0.116,-0.057 0.247,-0.074 0.367,-0.121 c0.418,-0.155 0.863,-0.218 1.3,-0.277 c0.269,0 0.539,0.003 0.807,-0.015 c0.417,-0.03 0.833,0.026 1.245,0.07 c0.404,0.047 0.797,0.162 1.186,0.278 c0.382,0.091 0.724,0.292 1.075,0.462 c0.681,0.326 1.304,0.761 1.895,1.227 c0.264,0.238 0.55,0.449 0.793,0.71 c0.156,0.185 0.375,0.3 0.523,0.494 c0.109,0.163 0.262,0.289 0.398,0.428 c0.143,0.121 0.226,0.296 0.376,0.413 c0.443,0.533 0.895,1.058 1.339,1.591 c0.239,0.251 0.436,0.538 0.691,0.776 c0.086,0.103 0.153,0.234 0.294,0.273 c0.113,0.072 0.193,-0.073 0.281,-0.125 c0.173,-0.169 0.392,-0.322 0.448,-0.573 c-0.16,-0.324 -0.404,-0.595 -0.613,-0.888 c-0.53,-0.719 -1.092,-1.41 -1.673,-2.086 c-0.116,-0.099 -0.186,-0.237 -0.298,-0.34 c-0.129,-0.134 -0.272,-0.255 -0.393,-0.396 c-0.236,-0.314 -0.553,-0.55 -0.81,-0.843 c-0.133,-0.158 -0.32,-0.253 -0.451,-0.413 c-0.139,-0.165 -0.325,-0.275 -0.471,-0.432 c-0.157,-0.104 -0.277,-0.254 -0.439,-0.35 c-1.192,-0.981 -2.539,-1.771 -3.973,-2.339 c-0.381,-0.146 -0.769,-0.271 -1.161,-0.379 c-0.401,-0.101 -0.8,-0.213 -1.213,-0.254 c-0.399,-0.084 -0.808,-0.106 -1.21,-0.179 c-0.174,-0.011 -0.349,0.004 -0.522,-0.007 c-0.284,-0.045 -0.573,-0.021 -0.858,-0.021 c-0.274,0.042 -0.552,0.012 -0.827,0.031 c-0.128,0.052 -0.269,0.011 -0.398,0.054 c-1.502,0.167 -2.992,0.69 -4.183,1.641 c-0.175,0.192 -0.413,0.31 -0.585,0.505 c-0.294,0.31 -0.562,0.643 -0.82,0.983 c-0.526,0.778 -0.938,1.639 -1.17,2.552 c-0.166,0.528 -0.249,1.078 -0.328,1.624 c0.001,0.189 -0.06,0.37 -0.041,0.561 c-0.063,0.209 -0.026,0.428 -0.037,0.643 c-0.045,0.375 -0.03,0.756 0.019,1.131 c0.013,0.16 -0.014,0.321 0.011,0.48 c0.027,0.179 -0.021,0.364 0.04,0.536 c0.013,0.338 0.068,0.672 0.119,1.007 c0.153,0.93 0.359,1.854 0.674,2.745 c0.038,0.153 0.082,0.307 0.151,0.451 c0.231,0.7 0.548,1.368 0.854,2.039 c0.338,0.677 0.706,1.336 1.102,1.98 c0.19,0.275 0.349,0.571 0.554,0.837 c0.305,0.43 0.607,0.865 0.955,1.261 c0.144,0.194 0.313,0.365 0.455,0.559 c0.088,0.101 0.194,0.184 0.281,0.285 c0.216,0.282 0.486,0.515 0.739,0.763 c0.195,0.205 0.389,0.415 0.602,0.602 c0.193,0.13 0.323,0.331 0.51,0.464 c0.426,0.353 0.851,0.709 1.305,1.026 c0.822,0.606 1.708,1.118 2.603,1.606 c1.22,0.613 2.5,1.128 3.835,1.427 c0.331,0.061 0.657,0.15 0.989,0.211 c0.323,0.034 0.641,0.096 0.962,0.128 C-0.228,-0.038 -0.112,-0.028 0,0 "
              id="path38" style="fill:#111111;fill-opacity:1;fill-rule:nonzero;"></path>
          </g>

          <g id="g40" transform="translate(146.2445,107.728)">
            <path
              d="M0,0 c0.143,0.029 0.29,0.01 0.436,0.015 c0.413,0 0.826,-10e-4 1.24,0.001 c0.2,0.009 0.396,-0.051 0.599,-0.043 c0.357,-0.07 0.719,-0.103 1.078,-0.16 C3.76,-0.282 4.165,-0.39 4.564,-0.517 C5.478,-0.836 6.344,-1.313 7.06,-1.967 C7.272,-2.205 7.53,-2.401 7.715,-2.664 C8.529,-3.697 8.998,-4.979 9.138,-6.282 C9.151,-6.389 9.195,-6.49 9.191,-6.6 C9.184,-6.714 9.242,-6.819 9.229,-6.936 C9.222,-7.087 9.227,-7.238 9.263,-7.387 C9.272,-7.7 9.262,-8.015 9.267,-8.329 C9.279,-8.481 9.209,-8.625 9.228,-8.777 C9.249,-9.001 9.185,-9.217 9.167,-9.438 c-0.052,-0.868 -0.232,-1.723 -0.432,-2.57 c-0.083,-0.344 -0.201,-0.678 -0.291,-1.02 c-0.114,-0.41 -0.254,-0.812 -0.408,-1.207 c-0.057,-0.206 -0.146,-0.4 -0.233,-0.594 c-0.269,-0.729 -0.616,-1.423 -0.967,-2.116 c-0.385,-0.706 -0.777,-1.41 -1.23,-2.076 c-0.565,-0.861 -1.194,-1.679 -1.864,-2.458 c-0.071,-0.115 -0.192,-0.186 -0.263,-0.3 c-0.137,-0.199 -0.355,-0.326 -0.482,-0.533 c-0.22,-0.243 -0.47,-0.458 -0.691,-0.7 c-0.062,-0.066 -0.151,-0.097 -0.209,-0.166 c-0.302,-0.329 -0.66,-0.593 -0.995,-0.884 c-0.556,-0.468 -1.152,-0.883 -1.749,-1.294 c-0.164,-0.082 -0.307,-0.198 -0.466,-0.287 c-0.132,-0.099 -0.288,-0.158 -0.421,-0.253 c-0.135,-0.081 -0.267,-0.166 -0.412,-0.227 c-0.678,-0.39 -1.389,-0.714 -2.112,-1.008 c-0.414,-0.153 -0.821,-0.326 -1.249,-0.442 c-0.34,-0.114 -0.691,-0.189 -1.037,-0.28 c-0.43,-0.105 -0.869,-0.16 -1.304,-0.233 c-0.188,-0.013 -0.372,-0.059 -0.561,-0.048 c-0.262,-0.037 -0.527,-0.021 -0.788,-0.061 c-0.275,0.002 -0.551,-0.015 -0.824,0.018 c-0.213,0.022 -0.426,-0.001 -0.638,0.012 c-0.186,0.041 -0.375,0.072 -0.565,0.077 c-0.759,0.11 -1.516,0.284 -2.218,0.599 c-0.556,0.236 -1.082,0.548 -1.558,0.921 c-0.138,0.087 -0.228,0.225 -0.354,0.325 c-0.289,0.21 -0.504,0.5 -0.725,0.775 c-0.733,1.006 -1.155,2.222 -1.28,3.454 c-0.06,0.172 -0.01,0.356 -0.039,0.533 c-0.051,0.222 -0.021,0.452 -0.028,0.678 c0.005,0.284 -0.011,0.57 0.008,0.853 c0.051,0.225 0.008,0.46 0.057,0.686 c0.009,0.385 0.084,0.764 0.145,1.144 c0.329,2.126 1.038,4.177 1.969,6.11 c0.678,1.367 1.462,2.682 2.357,3.919 c0.383,0.516 0.775,1.026 1.186,1.52 c0.127,0.125 0.218,0.28 0.357,0.395 c0.127,0.195 0.311,0.341 0.471,0.506 c0.222,0.311 0.531,0.545 0.786,0.827 c0.075,0.092 0.189,0.135 0.265,0.225 c0.133,0.13 0.252,0.277 0.408,0.382 c0.691,0.621 1.432,1.184 2.204,1.704 c0.749,0.471 1.513,0.927 2.326,1.282 c1.07,0.491 2.195,0.87 3.356,1.076 C-0.893,-0.071 -0.444,-0.065 0,0 m-0.226,-1.315 c-0.149,-0.034 -0.305,-0.031 -0.452,-0.072 c-0.288,-0.082 -0.569,-0.184 -0.851,-0.28 c-0.978,-0.436 -1.864,-1.062 -2.653,-1.78 c-0.119,-0.066 -0.2,-0.175 -0.296,-0.268 c-0.182,-0.181 -0.364,-0.363 -0.545,-0.545 c-0.105,-0.107 -0.225,-0.203 -0.303,-0.335 c-0.727,-0.778 -1.342,-1.654 -1.933,-2.541 c-0.445,-0.684 -0.83,-1.405 -1.218,-2.125 c-0.686,-1.333 -1.215,-2.739 -1.708,-4.153 c-0.034,-0.211 -0.117,-0.408 -0.178,-0.611 c-0.235,-0.823 -0.431,-1.657 -0.583,-2.497 c-0.026,-0.187 -0.093,-0.367 -0.084,-0.557 c-0.072,-0.337 -0.089,-0.68 -0.146,-1.018 c0.023,-0.192 -0.058,-0.373 -0.037,-0.565 c0.017,-0.127 -0.043,-0.246 -0.039,-0.373 c0.02,-0.427 -0.087,-0.848 -0.057,-1.276 c0.028,-0.338 0.019,-0.678 0.02,-1.017 c0,-0.152 -0.01,-0.306 0.028,-0.454 c0.033,-0.819 0.166,-1.643 0.443,-2.42 c0.082,-0.321 0.247,-0.613 0.42,-0.894 c0.365,-0.586 0.923,-1.056 1.58,-1.278 c0.404,-0.124 0.828,-0.155 1.248,-0.161 c0.497,0.033 0.998,0.076 1.472,0.239 c0.61,0.186 1.188,0.477 1.697,0.859 c0.358,0.251 0.704,0.521 1.016,0.827 c0.214,0.144 0.37,0.356 0.561,0.528 c0.145,0.121 0.228,0.295 0.376,0.413 c0.265,0.299 0.513,0.613 0.761,0.929 c0.385,0.548 0.782,1.088 1.111,1.672 c0.201,0.305 0.356,0.639 0.555,0.946 c0.258,0.564 0.566,1.106 0.801,1.681 c0.339,0.741 0.641,1.5 0.932,2.259 c0.029,0.115 0.073,0.223 0.125,0.328 c0.076,0.217 0.132,0.44 0.211,0.655 c0.248,0.696 0.445,1.409 0.668,2.113 c0.106,0.483 0.24,0.96 0.361,1.44 c0.264,1.192 0.509,2.395 0.6,3.61 c0.067,0.204 -0.011,0.423 0.053,0.626 c0.061,0.253 0.034,0.515 0.015,0.771 c-0.008,0.121 0.007,0.244 -0.019,0.364 c-0.06,0.265 0.023,0.544 -0.055,0.806 C3.645,-4.87 3.517,-4.28 3.372,-3.699 C3.205,-3.211 2.999,-2.73 2.696,-2.31 C2.436,-2.013 2.131,-1.749 1.774,-1.577 C1.578,-1.513 1.399,-1.402 1.194,-1.37 C0.968,-1.329 0.741,-1.286 0.51,-1.3 C0.265,-1.311 0.017,-1.28 -0.226,-1.315 "
              id="path42" style="fill:#111111;fill-opacity:1;fill-rule:nonzero;"></path>
          </g>
          <g id="g28" transform="translate(165.0233,109.4673)">
            <path
              d="M0,0 c0.396,0.062 0.797,0.036 1.197,0.041 c1.04,0 2.079,-0.001 3.119,0 C4.531,0.062 4.741,0.006 4.956,0.001 C4.976,-0.191 4.909,-0.375 4.829,-0.546 C4.757,-0.687 4.738,-0.847 4.671,-0.988 C3.85,-3.091 3.059,-5.202 2.231,-7.303 C1.794,-8.442 1.375,-9.589 0.905,-10.715 c-0.222,-0.684 -0.502,-1.348 -0.759,-2.019 c-0.559,-1.38 -1.169,-2.741 -1.903,-4.036 c-0.06,-0.13 -0.157,-0.252 -0.169,-0.4 c0.027,0 0.081,0.001 0.108,0.002 c0.242,0.275 0.455,0.576 0.714,0.836 c0.213,0.296 0.507,0.519 0.751,0.787 c0.098,0.118 0.242,0.183 0.338,0.302 c0.545,0.457 1.114,0.892 1.742,1.228 c0.844,0.468 1.783,0.751 2.738,0.867 c0.165,-0.015 0.323,0.052 0.49,0.039 c0.251,-0.009 0.504,0.018 0.754,-0.023 c0.188,-0.035 0.383,0.01 0.569,-0.046 c0.498,-0.077 0.989,-0.23 1.418,-0.5 c0.589,-0.373 0.984,-1.001 1.142,-1.673 c0.078,-0.4 0.156,-0.806 0.138,-1.216 c-0.01,-0.276 0.027,-0.555 -0.035,-0.826 c0.003,-0.431 -0.105,-0.854 -0.194,-1.275 C8.554,-19.496 8.241,-20.292 7.861,-21.052 C7.473,-21.764 7.07,-22.47 6.592,-23.127 C6.446,-23.343 6.272,-23.535 6.126,-23.75 C5.978,-23.916 5.862,-24.11 5.7,-24.265 C5.62,-24.406 5.474,-24.492 5.389,-24.63 c-0.102,-0.146 -0.263,-0.241 -0.355,-0.396 c-0.116,-0.147 -0.265,-0.26 -0.39,-0.397 c-0.123,-0.129 -0.242,-0.264 -0.393,-0.359 c-0.265,-0.278 -0.565,-0.514 -0.858,-0.759 c-1.105,-0.914 -2.338,-1.667 -3.642,-2.259 c-0.418,-0.19 -0.85,-0.349 -1.293,-0.471 c-0.611,-0.194 -1.246,-0.31 -1.881,-0.374 c-0.359,0.025 -0.716,-0.064 -1.074,-0.015 c-0.194,0.043 -0.399,-0.019 -0.589,0.046 c-0.356,0.011 -0.693,0.131 -1.039,0.2 c-0.768,0.232 -1.495,0.641 -2.043,1.23 c-0.114,0.171 -0.286,0.291 -0.398,0.462 c-0.192,0.256 -0.364,0.527 -0.505,0.812 c-0.098,0.16 -0.19,0.325 -0.251,0.503 c-0.048,0.258 0.096,0.492 0.163,0.732 c0.141,0.344 0.228,0.707 0.38,1.047 c0.136,0.441 0.325,0.865 0.459,1.309 c0.266,0.757 0.537,1.512 0.812,2.266 c0.1,0.216 0.141,0.451 0.23,0.671 c0.293,0.855 0.617,1.696 0.906,2.552 c0.175,0.478 0.33,0.964 0.518,1.437 c0.104,0.236 0.146,0.493 0.252,0.727 c0.065,0.134 0.091,0.281 0.144,0.42 c0.082,0.23 0.187,0.453 0.246,0.691 c0.256,0.698 0.49,1.405 0.754,2.1 c0.298,0.842 0.58,1.69 0.895,2.526 c0.089,0.19 0.124,0.397 0.201,0.591 c0.128,0.317 0.217,0.65 0.348,0.967 c0.071,0.204 0.154,0.403 0.214,0.611 c0.061,0.218 0.165,0.42 0.225,0.639 c0.057,0.176 0.137,0.342 0.196,0.517 c0.115,0.417 0.289,0.813 0.43,1.221 c0.275,0.768 0.528,1.544 0.819,2.306 c0.141,0.314 0.21,0.655 0.337,0.975 c0.147,0.404 0.278,0.813 0.443,1.209 c0.065,0.199 0.114,0.403 0.197,0.594 C-0.098,-0.201 -0.048,-0.101 0,0 m1.813,-15.229 c-0.226,-0.038 -0.454,-0.072 -0.668,-0.159 c-0.438,-0.124 -0.808,-0.4 -1.157,-0.682 c-0.195,-0.195 -0.437,-0.343 -0.591,-0.576 c-0.696,-0.758 -1.209,-1.66 -1.672,-2.572 c-0.621,-1.365 -1.198,-2.753 -1.754,-4.146 c-0.162,-0.479 -0.358,-0.951 -0.426,-1.455 c-0.036,-0.108 -0.009,-0.224 -0.048,-0.331 c-0.076,-0.242 -0.002,-0.493 -0.012,-0.739 c0.02,-0.35 0.157,-0.682 0.325,-0.988 c0.212,-0.352 0.481,-0.674 0.825,-0.903 c0.313,-0.223 0.678,-0.404 1.07,-0.408 c0.228,-0.046 0.445,0.052 0.667,0.09 c0.548,0.161 1.004,0.533 1.388,0.944 c0.382,0.351 0.669,0.787 0.975,1.204 c0.415,0.617 0.77,1.273 1.103,1.938 c0.104,0.233 0.204,0.468 0.326,0.693 c0.112,0.327 0.285,0.63 0.395,0.959 c0.189,0.418 0.313,0.865 0.464,1.298 c0.115,0.385 0.273,0.758 0.35,1.154 c0.108,0.432 0.239,0.862 0.313,1.303 c0.085,0.374 0.153,0.752 0.18,1.134 c-0.012,0.266 0.028,0.537 -0.031,0.799 c-0.021,0.196 -0.081,0.385 -0.145,0.57 c-0.107,0.248 -0.229,0.511 -0.465,0.66 c-0.42,0.257 -0.938,0.25 -1.412,0.213 "
              id="path30" style="fill:#111111;fill-opacity:1;fill-rule:nonzero;"></path>
          </g>
          <g id="g44" transform="translate(185.9667,107.3052)">
            <path
              d="M0,0 C0.23,0.035 0.462,-0.012 0.693,-0.018 C1.05,-0.08 1.408,-0.185 1.711,-0.389 C2.044,-0.605 2.315,-0.927 2.452,-1.302 C2.621,-1.701 2.63,-2.142 2.613,-2.569 C2.518,-3.399 2.104,-4.187 1.493,-4.756 C1.223,-4.985 0.922,-5.175 0.606,-5.333 C0.382,-5.439 0.137,-5.474 -0.1,-5.531 c-0.759,-0.128 -1.609,-0.034 -2.219,0.473 c-0.322,0.281 -0.553,0.658 -0.659,1.071 c-0.016,0.237 -0.094,0.466 -0.085,0.706 c0.02,0.492 0.155,0.972 0.342,1.427 c0.173,0.302 0.35,0.614 0.609,0.854 c0.55,0.574 1.313,0.959 2.112,1 "
              id="path46" style="fill:#111111;fill-opacity:1;fill-rule:nonzero;"></path>
          </g>


          <g id="g64" transform="translate(179.9828,95.7485)">
            <path
              d="M0,0 C0.199,0.077 0.418,0.088 0.631,0.082 H4.012 C4.301,0.077 4.602,0.113 4.877,0.002 C4.913,-0.205 4.792,-0.383 4.749,-0.579 C4.624,-0.984 4.477,-1.384 4.341,-1.786 C4.232,-2.063 4.164,-2.354 4.06,-2.634 C3.746,-3.514 3.448,-4.398 3.132,-5.277 C3.03,-5.584 2.884,-5.875 2.806,-6.188 C2.397,-7.317 1.988,-8.446 1.564,-9.569 C1.488,-9.75 1.413,-9.932 1.366,-10.122 c-0.299,-0.803 -0.604,-1.603 -0.902,-2.405 c-0.427,-1.081 -0.889,-2.149 -1.387,-3.199 c-0.125,-0.209 -0.19,-0.447 -0.325,-0.651 c-0.423,-0.889 -0.925,-1.738 -1.453,-2.568 c-0.398,-0.565 -0.781,-1.14 -1.222,-1.672 c-0.08,-0.131 -0.211,-0.218 -0.29,-0.349 c-0.088,-0.112 -0.206,-0.196 -0.292,-0.309 c-0.178,-0.233 -0.401,-0.425 -0.61,-0.628 c-0.122,-0.128 -0.235,-0.27 -0.385,-0.368 c-0.537,-0.486 -1.121,-0.92 -1.732,-1.311 c-0.338,-0.197 -0.68,-0.39 -1.044,-0.535 c-0.319,-0.159 -0.665,-0.249 -1.006,-0.346 c-0.26,-0.073 -0.525,-0.134 -0.794,-0.153 c-0.177,-0.03 -0.35,-0.083 -0.531,-0.066 c-0.446,-0.073 -0.901,-0.018 -1.349,0.007 c-0.244,0.044 -0.488,0.091 -0.721,0.178 c-0.13,0.051 -0.272,0.065 -0.396,0.131 c-0.32,0.149 -0.652,0.305 -0.886,0.578 c-0.193,0.169 -0.279,0.418 -0.368,0.65 c-0.138,0.382 -0.14,0.795 -0.105,1.195 c0.043,0.171 0.069,0.345 0.124,0.512 c0.128,0.296 0.318,0.585 0.598,0.756 c0.342,0.241 0.773,0.334 1.189,0.32 c0.452,0.03 0.933,-0.155 1.202,-0.53 c0.264,-0.33 0.441,-0.719 0.634,-1.092 c0.155,-0.281 0.267,-0.594 0.48,-0.837 c0.15,-0.101 0.306,-0.228 0.5,-0.214 c0.162,0.01 0.333,-0.03 0.488,0.039 c0.167,0.074 0.347,0.137 0.463,0.29 c0.311,0.275 0.521,0.637 0.749,0.979 c0.28,0.458 0.552,0.924 0.761,1.419 c0.373,0.76 0.673,1.554 0.957,2.351 c0.37,1.087 0.804,2.15 1.206,3.226 c0.273,0.722 0.533,1.448 0.796,2.172 c0.137,0.411 0.308,0.81 0.429,1.226 c0.397,1.104 0.75,2.225 1.136,3.334 c0.138,0.509 0.313,1.007 0.485,1.505 c0.108,0.279 0.173,0.572 0.277,0.853 c0.232,0.661 0.446,1.329 0.677,1.991 c0.167,0.436 0.283,0.887 0.443,1.325 c0.148,0.341 0.226,0.709 0.375,1.051 C-0.322,-0.84 -0.194,-0.406 0,0 "
              id="path66" style="fill:#111111;fill-opacity:1;fill-rule:nonzero;"></path>
          </g>
          <g id="g56" transform="translate(197.6293,96.3276)">
            <path
              d="M0,0 C0.282,0.058 0.574,0.024 0.859,0.003 C1.505,-0.019 2.18,-0.21 2.655,-0.667 C2.78,-0.767 2.9,-0.876 2.982,-1.015 C3.121,-1.247 3.249,-1.494 3.288,-1.766 C3.455,-2.347 3.413,-2.98 3.212,-3.551 C2.965,-4.239 2.482,-4.809 1.971,-5.316 C1.097,-6.104 0.076,-6.72 -0.998,-7.197 c-0.316,-0.14 -0.628,-0.294 -0.961,-0.391 c-1.48,-0.622 -3.047,-1.013 -4.621,-1.313 c-0.122,-0.015 -0.268,-0.054 -0.302,-0.19 c-0.104,-0.382 -0.147,-0.777 -0.224,-1.166 c-0.051,-0.187 -0.016,-0.384 -0.033,-0.575 c-0.025,-0.324 0.003,-0.648 0.012,-0.972 c0.066,-0.325 0.115,-0.663 0.28,-0.957 c0.142,-0.291 0.362,-0.538 0.615,-0.738 c0.313,-0.23 0.674,-0.375 1.037,-0.506 c0.249,-0.07 0.508,-0.099 0.764,-0.132 c0.503,0 1.005,-0.002 1.507,0.001 c0.457,0.079 0.917,0.167 1.35,0.337 c0.349,0.122 0.675,0.298 1.005,0.463 c0.258,0.118 0.502,0.267 0.735,0.43 c0.38,0.238 0.736,0.512 1.09,0.789 c0.221,0.167 0.419,0.361 0.643,0.523 c0.124,0.094 0.27,0.165 0.429,0.167 c0.068,-0.106 0.092,-0.253 0.039,-0.372 c-0.127,-0.282 -0.358,-0.494 -0.546,-0.732 c-0.211,-0.203 -0.417,-0.41 -0.62,-0.62 c-1.092,-0.953 -2.335,-1.731 -3.663,-2.312 c-0.77,-0.333 -1.554,-0.647 -2.379,-0.814 c-0.429,-0.098 -0.865,-0.164 -1.301,-0.204 c-0.163,-0.049 -0.336,-0.009 -0.502,-0.026 c-0.45,-0.076 -0.903,0.025 -1.356,0.002 c-0.438,0.05 -0.877,0.119 -1.305,0.234 c-0.371,0.079 -0.715,0.244 -1.047,0.42 c-0.205,0.097 -0.386,0.236 -0.565,0.372 c-0.15,0.139 -0.286,0.291 -0.435,0.431 c-0.318,0.4 -0.588,0.85 -0.718,1.348 c-0.091,0.241 -0.104,0.498 -0.157,0.748 c-0.028,0.103 -0.013,0.211 -0.019,0.316 c-0.087,0.398 -0.011,0.807 0.038,1.203 c0.005,0.376 0.113,0.744 0.215,1.104 c0.02,0.204 0.109,0.391 0.168,0.584 c0.541,1.536 1.427,2.936 2.475,4.176 c0.083,0.127 0.214,0.213 0.308,0.331 c0.241,0.319 0.563,0.564 0.829,0.861 c0.135,0.14 0.276,0.274 0.412,0.414 c0.535,0.469 1.083,0.927 1.659,1.347 c1.294,0.929 2.712,1.686 4.218,2.209 C-1.297,-0.217 -0.658,-0.034 0,0 m-2.686,-2.161 c-0.329,-0.136 -0.61,-0.361 -0.868,-0.601 c-0.1,-0.159 -0.259,-0.269 -0.359,-0.427 c-0.138,-0.142 -0.244,-0.309 -0.364,-0.464 c-0.199,-0.315 -0.442,-0.601 -0.604,-0.937 c-0.202,-0.32 -0.365,-0.661 -0.55,-0.991 c-0.116,-0.194 -0.176,-0.415 -0.289,-0.61 c-0.193,-0.414 -0.358,-0.84 -0.557,-1.251 c-0.061,-0.116 -0.104,-0.242 -0.11,-0.373 c0.133,-0.107 0.306,-0.005 0.447,0.037 c0.586,0.204 1.165,0.436 1.713,0.731 c0.407,0.188 0.786,0.433 1.152,0.691 c0.272,0.212 0.523,0.452 0.761,0.704 c0.114,0.16 0.244,0.306 0.359,0.465 c0.386,0.588 0.713,1.238 0.796,1.945 c-10e-4,0.199 0.005,0.399 -0.003,0.598 c-0.022,0.183 -0.188,0.29 -0.31,0.407 c-0.37,0.19 -0.824,0.225 -1.214,0.076 "
              id="path58" style="fill:#111111;fill-opacity:1;fill-rule:nonzero;"></path>
          </g>
          <g id="g60" transform="translate(212.4584,96.3364)">
            <path
              d="M0,0 C0.28,0.045 0.564,0.011 0.846,-0.008 C1.546,-0.03 2.269,-0.223 2.819,-0.675 C3.013,-0.807 3.137,-1.01 3.299,-1.174 C3.514,-1.455 3.638,-1.792 3.732,-2.13 C3.766,-2.441 3.867,-2.745 3.854,-3.061 C3.849,-3.285 3.874,-3.514 3.814,-3.733 C3.76,-4.173 3.571,-4.583 3.347,-4.96 C3.043,-5.4 2.654,-5.82 2.137,-6.004 C1.815,-6.147 1.461,-6.197 1.111,-6.18 C0.921,-6.198 0.739,-6.135 0.55,-6.139 c-0.438,0.08 -0.878,0.249 -1.196,0.571 c-0.195,0.226 -0.359,0.509 -0.352,0.817 c-0.004,0.215 -0.071,0.436 -0.004,0.647 c0.037,0.386 0.217,0.738 0.384,1.082 c0.071,0.168 0.139,0.335 0.216,0.501 c0.024,0.112 0.018,0.239 -0.059,0.331 c-0.153,0.174 -0.325,0.332 -0.515,0.462 c-0.226,0.199 -0.542,0.286 -0.836,0.237 c-0.35,-0.129 -0.623,-0.406 -0.845,-0.697 c-0.482,-0.587 -0.84,-1.261 -1.183,-1.936 c-0.142,-0.321 -0.292,-0.638 -0.43,-0.961 c-0.184,-0.394 -0.312,-0.809 -0.48,-1.209 c-0.478,-1.335 -0.873,-2.705 -1.116,-4.104 c-0.022,-0.196 -0.062,-0.388 -0.055,-0.587 c-0.048,-0.3 0,-0.602 0.009,-0.904 c0.064,-0.311 0.126,-0.646 0.35,-0.888 c0.18,-0.294 0.472,-0.49 0.76,-0.669 c0.431,-0.24 0.912,-0.38 1.401,-0.437 c0.251,-0.001 0.502,10e-4 0.754,0 c0.374,-0.018 0.741,0.078 1.099,0.179 c0.509,0.163 0.991,0.408 1.433,0.709 c0.247,0.175 0.504,0.343 0.709,0.568 c0.216,0.223 0.445,0.433 0.657,0.658 c0.111,0.102 0.274,0.218 0.429,0.149 c0.114,-0.026 0.174,-0.142 0.213,-0.244 c0.047,-0.173 -0.101,-0.311 -0.159,-0.463 c-0.304,-0.44 -0.715,-0.787 -1.083,-1.171 c-0.85,-0.739 -1.779,-1.399 -2.783,-1.912 c-0.287,-0.182 -0.604,-0.302 -0.908,-0.449 c-0.581,-0.272 -1.196,-0.471 -1.828,-0.577 c-0.229,-0.003 -0.444,-0.105 -0.674,-0.077 c-0.269,-0.019 -0.54,-0.05 -0.807,-0.016 c-0.156,0.031 -0.315,0.008 -0.469,0.017 c-0.275,0.051 -0.557,0.064 -0.823,0.154 c-0.708,0.143 -1.382,0.456 -1.946,0.907 c-0.096,0.109 -0.233,0.17 -0.321,0.285 c-0.156,0.195 -0.342,0.367 -0.458,0.591 c-0.411,0.628 -0.593,1.381 -0.661,2.119 c0.019,0.154 -0.053,0.298 -0.038,0.451 c0.004,0.153 -0.018,0.311 0.032,0.459 c0.018,0.757 0.221,1.497 0.452,2.215 c0.165,0.479 0.387,0.935 0.595,1.395 c0.567,1.102 1.261,2.141 2.069,3.081 c0.131,0.132 0.231,0.292 0.376,0.414 c0.15,0.233 0.385,0.391 0.563,0.6 c0.17,0.168 0.334,0.343 0.51,0.505 c0.162,0.097 0.263,0.266 0.425,0.362 c0.228,0.214 0.474,0.409 0.727,0.592 c0.563,0.469 1.19,0.855 1.824,1.218 c0.359,0.203 0.734,0.376 1.113,0.541 c0.309,0.119 0.613,0.257 0.936,0.343 c0.47,0.141 0.957,0.219 1.443,0.28 "
              id="path62" style="fill:#111111;fill-opacity:1;fill-rule:nonzero;"></path>
          </g>
          <g id="g48" transform="translate(226.9632,102.2768)">
            <path
              d="M0,0 C0.322,0.041 0.634,0.147 0.96,0.171 C0.981,-0.021 0.906,-0.205 0.833,-0.38 C0.392,-1.631 -0.068,-2.879 -0.534,-4.123 C-0.63,-4.494 -0.798,-4.842 -0.916,-5.206 C-1.003,-5.457 -1.114,-5.698 -1.187,-5.952 C-1.242,-6.06 -1.28,-6.174 -1.294,-6.293 c0.004,-0.075 0.058,-0.175 0.149,-0.153 c1.592,10e-4 3.184,-0.001 4.775,10e-4 c0.135,0.006 0.265,-0.038 0.401,-0.045 c0.076,-0.069 0.05,-0.184 0.025,-0.271 c-0.123,-0.41 -0.252,-0.817 -0.389,-1.222 c-0.025,-0.05 -0.036,-0.119 -0.092,-0.14 c-0.213,-0.074 -0.441,-0.05 -0.66,-0.061 c-1.378,0.019 -2.756,0.005 -4.134,0.01 c-0.178,0.011 -0.35,-0.049 -0.526,-0.039 c-0.055,0.01 -0.103,-0.015 -0.127,-0.06 c-0.165,-0.355 -0.255,-0.738 -0.405,-1.098 c-0.107,-0.339 -0.227,-0.673 -0.344,-1.009 c-0.15,-0.342 -0.218,-0.714 -0.372,-1.054 c-0.194,-0.623 -0.418,-1.235 -0.633,-1.85 c-0.387,-1.123 -0.767,-2.248 -1.19,-3.357 c-0.095,-0.2 -0.142,-0.421 -0.251,-0.615 c-0.204,-0.558 -0.389,-1.14 -0.361,-1.742 c-0.018,-0.193 0.081,-0.371 0.187,-0.526 c0.081,-0.132 0.222,-0.205 0.339,-0.303 c0.157,-0.064 0.297,-0.174 0.467,-0.204 c0.143,-0.031 0.287,-0.066 0.436,-0.057 c0.338,-0.034 0.68,-0.015 1.015,0.037 c0.177,-0.001 0.339,0.085 0.509,0.133 c0.298,0.087 0.555,0.267 0.828,0.407 c0.5,0.299 0.938,0.687 1.365,1.079 c0.22,0.155 0.363,0.408 0.617,0.517 c0.069,0.034 0.14,-0.011 0.207,-0.037 c0.019,-0.101 0.071,-0.209 0.022,-0.31 c-0.081,-0.175 -0.165,-0.353 -0.282,-0.509 c-0.244,-0.338 -0.509,-0.664 -0.816,-0.949 c-0.174,-0.15 -0.308,-0.345 -0.504,-0.47 c-0.405,-0.395 -0.873,-0.716 -1.346,-1.024 c-0.519,-0.311 -1.055,-0.598 -1.621,-0.821 c-0.249,-0.071 -0.485,-0.183 -0.738,-0.238 c-0.275,-0.057 -0.548,-0.129 -0.828,-0.15 c-0.202,-0.062 -0.416,-0.004 -0.619,-0.052 c-0.21,-0.013 -0.422,-0.017 -0.629,0.019 c-0.404,-0.009 -0.801,0.077 -1.194,0.16 c-0.707,0.181 -1.412,0.512 -1.865,1.104 c-0.505,0.63 -0.652,1.497 -0.476,2.273 c0.09,0.562 0.324,1.083 0.48,1.626 c0.232,0.687 0.497,1.362 0.732,2.049 c0.167,0.474 0.321,0.954 0.485,1.43 c0.093,0.292 0.22,0.574 0.294,0.873 c0.185,0.562 0.398,1.113 0.577,1.678 c0.091,0.199 0.129,0.415 0.207,0.618 c0.316,0.85 0.574,1.72 0.887,2.571 c0.148,0.346 0.226,0.718 0.359,1.069 c0.229,0.6 0.404,1.217 0.623,1.82 c0.103,0.214 0.137,0.453 0.225,0.672 c0.174,0.483 0.345,0.966 0.504,1.453 c0.116,0.379 0.276,0.745 0.377,1.127 c0.058,0.176 0.153,0.339 0.192,0.522 c0.057,0.179 0.091,0.385 0.238,0.515 c0.074,0.024 0.15,0.045 0.227,0.07 c0.434,0.056 0.855,0.21 1.292,0.254 c0.435,0.116 0.881,0.186 1.319,0.292 c0.216,0.057 0.442,0.066 0.658,0.132 C-0.455,-0.09 -0.225,-0.057 0,0 "
              id="path50" style="fill:#111111;fill-opacity:1;fill-rule:nonzero;"></path>
          </g>

          <g id="g68" transform="translate(202.3021,59.3559)"></g>
          <g id="g52" transform="translate(243.5687,97.7075)">
            <path
              d="M0,0 C0.078,0.003 0.158,0.003 0.239,0.001 C0.331,-0.092 0.432,-0.197 0.438,-0.337 C0.443,-0.462 0.471,-0.586 0.477,-0.711 C0.438,-1.014 0.361,-1.313 0.224,-1.588 c-0.24,-0.489 -0.396,-1.015 -0.522,-1.543 c-0.087,-0.303 -0.129,-0.614 -0.165,-0.924 c0.022,-0.167 -0.056,-0.323 -0.038,-0.49 c0.013,-0.214 -0.041,-0.424 -0.038,-0.639 c-0.003,-0.249 0.007,-0.5 -0.004,-0.749 c-0.07,-0.281 -0.007,-0.573 -0.045,-0.857 c-0.042,-0.147 -0.017,-0.302 -0.046,-0.451 c-0.039,-0.224 0.003,-0.452 -0.028,-0.676 c-0.059,-0.166 0.003,-0.347 -0.05,-0.513 c-0.03,-0.099 -0.002,-0.207 -0.03,-0.308 c-0.085,-0.526 -0.197,-1.055 -0.403,-1.55 c-0.505,-1.307 -1.289,-2.492 -2.197,-3.554 c-0.111,-0.174 -0.298,-0.282 -0.403,-0.461 c-0.189,-0.198 -0.391,-0.385 -0.579,-0.585 c-0.118,-0.134 -0.282,-0.217 -0.394,-0.357 c-0.374,-0.331 -0.777,-0.629 -1.179,-0.926 c-1.072,-0.734 -2.25,-1.35 -3.531,-1.616 c-0.311,-0.063 -0.628,-0.085 -0.944,-0.109 c-0.305,-0.058 -0.609,0.032 -0.915,0.011 c-0.664,0.074 -1.331,0.219 -1.94,0.505 c-0.432,0.191 -0.822,0.466 -1.169,0.782 c-0.414,0.426 -0.765,0.928 -0.944,1.498 c-0.065,0.209 -0.112,0.423 -0.151,0.638 c0.009,0.19 -0.061,0.371 -0.041,0.562 c-0.015,0.356 0.018,0.712 0.102,1.06 c0.015,0.281 0.122,0.545 0.206,0.812 c0.197,0.543 0.487,1.058 0.885,1.481 c0.32,0.295 0.678,0.562 1.089,0.715 c0.238,0.117 0.505,0.158 0.765,0.212 c0.235,0.003 0.472,0.021 0.71,0.022 c0.173,-0.032 0.356,0.003 0.526,-0.059 c0.319,-0.058 0.615,-0.212 0.876,-0.401 c0.131,-0.082 0.224,-0.22 0.381,-0.26 c0.119,-0.058 0.214,0.055 0.307,0.114 c0.206,0.17 0.418,0.332 0.61,0.517 c0.147,0.087 0.24,0.24 0.39,0.323 c0.129,0.122 0.243,0.261 0.395,0.357 c0.12,0.146 0.291,0.233 0.415,0.375 c0.126,0.124 0.239,0.265 0.394,0.357 c0.19,0.185 0.371,0.381 0.566,0.563 c0.161,0.097 0.274,0.251 0.411,0.378 c0.131,0.146 0.301,0.248 0.433,0.394 c0.403,0.384 0.779,0.798 1.188,1.18 c0.261,0.174 0.42,0.454 0.653,0.661 c0.325,0.338 0.681,0.649 0.977,1.014 c0.149,0.14 0.256,0.317 0.413,0.451 c0.139,0.114 0.216,0.281 0.358,0.395 c0.375,0.438 0.751,0.88 1.102,1.341 c0.228,0.289 0.419,0.604 0.642,0.897 C-0.505,-0.657 -0.315,-0.279 0,0 m-5.593,-7.828 c-0.2,-0.093 -0.338,-0.266 -0.513,-0.391 c-0.209,-0.194 -0.442,-0.359 -0.648,-0.557 c-0.166,-0.107 -0.274,-0.279 -0.437,-0.388 c-0.103,-0.071 -0.178,-0.175 -0.28,-0.247 c-0.157,-0.104 -0.258,-0.272 -0.417,-0.372 c-0.269,-0.235 -0.556,-0.446 -0.837,-0.667 c-0.239,-0.191 -0.511,-0.334 -0.748,-0.529 c-0.104,-0.072 -0.108,-0.21 -0.112,-0.326 c0.065,-0.241 0.003,-0.487 -0.04,-0.726 c-0.036,-0.179 -0.078,-0.357 -0.153,-0.523 c-0.18,-0.431 -0.451,-0.851 -0.868,-1.085 c-0.162,-0.089 -0.353,-0.133 -0.485,-0.267 c-0.135,-0.166 -0.129,-0.393 -0.13,-0.595 c0.019,-0.167 -0.004,-0.339 0.038,-0.504 c0.067,-0.551 0.216,-1.143 0.647,-1.528 c0.197,-0.178 0.457,-0.268 0.717,-0.299 c0.289,-10e-4 0.579,-10e-4 0.868,0 c0.628,0.068 1.236,0.347 1.682,0.796 c0.097,0.064 0.169,0.154 0.242,0.244 c0.331,0.333 0.544,0.756 0.741,1.176 c0.121,0.31 0.264,0.616 0.335,0.943 c0.085,0.337 0.147,0.68 0.22,1.019 c0.012,0.3 0.09,0.591 0.087,0.892 c0.065,0.193 0.012,0.398 0.046,0.594 c0.061,0.201 -0.011,0.417 0.058,0.617 c0.005,0.262 0.053,0.522 0.044,0.783 c0.005,0.165 -0.023,0.335 0.031,0.496 c0.018,0.171 -0.005,0.344 0.01,0.515 c0.045,0.159 0.029,0.326 0.058,0.488 c0.005,0.137 0.045,0.288 -0.03,0.412 c-0.018,0.057 -0.089,0.055 -0.126,0.029 "
              id="path54" style="fill:#111111;fill-opacity:1;fill-rule:nonzero;"></path>
          </g>          
        </g>
      </g>
    </g>
    <rect stroke="#111111" style="border-radius:50%; " id="rect1" stroke-width="0.3em" x="53.002px" rx="15px"
      width="285.009px" fill="none" y="39px" transform="" height="120.004px"></rect>
  </svg>
